<svg width="14" height="19" viewBox="0 0 14 19" fill="none" xmlns="http://www.w3.org/2000/svg">
<path d="M12.8333 8.3125H11.6667V4.75C11.6667 2.1375 9.56667 0 7 0C4.43333 0 2.33333 2.1375 2.33333 4.75V8.3125H1.16667C0.583333 8.3125 0 8.90625 0 9.5V17.8125C0 18.4062 0.583333 19 1.16667 19H12.8333C13.4167 19 14 18.4062 14 17.8125V9.5C14 8.90625 13.4167 8.3125 12.8333 8.3125ZM8.16667 16.625H5.83333L6.3 14.0125C5.71667 13.775 5.25 13.0625 5.25 12.4688C5.25 11.5188 6.06667 10.6875 7 10.6875C7.93333 10.6875 8.75 11.5188 8.75 12.4688C8.75 13.1812 8.4 13.775 7.7 14.0125L8.16667 16.625ZM9.33333 8.3125H4.66667V4.75C4.66667 3.44375 5.71667 2.375 7 2.375C8.28333 2.375 9.33333 3.44375 9.33333 4.75V8.3125Z" fill="#747474"/>
</svg>
